<?xml version="1.0" standalone="no"?>
<svg viewBox="0 0 200 200" xmlns="http://www.w3.org/2000/svg">
  <path fill="#ABC4FF" d="M29.4,-50.7C38.1,-40.2,45.1,-32,55.8,-21.7C66.4,-11.3,80.6,1.1,84,15.6C87.5,30.2,80.2,46.7,68.6,58.7C57.1,70.8,41.2,78.4,26.8,75.4C12.4,72.4,-0.5,58.9,-13.8,52.5C-27.1,46,-40.8,46.6,-50.2,40.7C-59.7,34.9,-64.8,22.5,-67.2,9.3C-69.7,-3.8,-69.5,-17.7,-64.2,-29.3C-58.8,-40.8,-48.5,-50,-36.9,-59.2C-25.4,-68.4,-12.7,-77.6,-1.2,-75.8C10.4,-74,20.7,-61.2,29.4,-50.7Z" transform="translate(100 100)" />
</svg>
